<svg width="1024" height="1024" viewBox="0 0 1024 1024" xmlns="http://www.w3.org/2000/svg">
  <defs>
    <linearGradient id="space" x1="90" y1="70" x2="930" y2="960" gradientUnits="userSpaceOnUse">
      <stop stop-color="#030715"/><stop offset="0.48" stop-color="#09183B"/><stop offset="1" stop-color="#1A0D35"/>
    </linearGradient>
    <radialGradient id="cyanNebula"><stop stop-color="#0D8DFF" stop-opacity="0.35"/><stop offset="1" stop-color="#0D8DFF" stop-opacity="0"/></radialGradient>
    <radialGradient id="violetNebula"><stop stop-color="#B44DFF" stop-opacity="0.3"/><stop offset="1" stop-color="#B44DFF" stop-opacity="0"/></radialGradient>
    <filter id="nebulaBlur" x="-30%" y="-30%" width="160%" height="160%"><feGaussianBlur stdDeviation="56"/></filter>
    <filter id="particleGlow" x="-180%" y="-180%" width="460%" height="460%"><feGaussianBlur stdDeviation="7" result="blur"/><feMerge><feMergeNode in="blur"/><feMergeNode in="SourceGraphic"/></feMerge></filter>
  </defs>
  <rect width="1024" height="1024" fill="url(#space)"/>
  <ellipse cx="326" cy="444" rx="340" ry="280" fill="url(#cyanNebula)" filter="url(#nebulaBlur)"/>
  <ellipse cx="742" cy="554" rx="340" ry="300" fill="url(#violetNebula)" filter="url(#nebulaBlur)"/>
  <g data-icon-layer="star-field"><circle cx="428.68" cy="795.69" r="3.1" fill="#FFFFFF" opacity="0.27"/><circle cx="240.8" cy="346.8" r="1.84" fill="#FFFFFF" opacity="0.2"/><circle cx="904.64" cy="906.39" r="0.71" fill="#FFFFFF" opacity="0.54"/><circle cx="627.95" cy="637.12" r="1.53" fill="#FFFFFF" opacity="0.51"/><circle cx="293.37" cy="477.42" r="0.7" fill="#FFFFFF" opacity="0.64"/><circle cx="483.74" cy="158.93" r="2.65" fill="#8EDCFF" opacity="0.32"/><circle cx="95.51" cy="449.67" r="0.97" fill="#FFFFFF" opacity="0.22"/><circle cx="416.86" cy="943.96" r="1.01" fill="#8EDCFF" opacity="0.58"/><circle cx="934.27" cy="326.94" r="0.91" fill="#8EDCFF" opacity="0.54"/><circle cx="480.44" cy="338.13" r="1.03" fill="#FFFFFF" opacity="0.41"/><circle cx="859.99" cy="428.43" r="0.75" fill="#FFFFFF" opacity="0.3"/><circle cx="857.49" cy="622.62" r="0.76" fill="#FFFFFF" opacity="0.44"/><circle cx="110.39" cy="579.96" r="1.35" fill="#FFFFFF" opacity="0.68"/><circle cx="774.5" cy="477.97" r="0.77" fill="#8EDCFF" opacity="0.54"/><circle cx="945.96" cy="227.74" r="1.07" fill="#FFFFFF" opacity="0.31"/><circle cx="771.29" cy="615" r="0.84" fill="#8EDCFF" opacity="0.29"/><circle cx="545.66" cy="419.31" r="0.76" fill="#8EDCFF" opacity="0.4"/><circle cx="846.33" cy="914.71" r="1.56" fill="#FFFFFF" opacity="0.2"/><circle cx="161.77" cy="390.43" r="1.17" fill="#FFFFFF" opacity="0.25"/><circle cx="407.21" cy="577.53" r="1.08" fill="#FFFFFF" opacity="0.65"/><circle cx="670.21" cy="406.91" r="0.7" fill="#FFFFFF" opacity="0.48"/><circle cx="521.99" cy="725.87" r="2.81" fill="#FFFFFF" opacity="0.65"/><circle cx="440.45" cy="170.33" r="1.08" fill="#FFFFFF" opacity="0.35"/><circle cx="148.73" cy="597.91" r="0.75" fill="#8EDCFF" opacity="0.33"/><circle cx="335.58" cy="369.78" r="0.75" fill="#FFFFFF" opacity="0.18"/><circle cx="809.88" cy="876.52" r="2.32" fill="#FFFFFF" opacity="0.4"/><circle cx="432.37" cy="772.51" r="2.9" fill="#FFFFFF" opacity="0.39"/><circle cx="744.02" cy="579.96" r="1.32" fill="#FFFFFF" opacity="0.72"/><circle cx="631.02" cy="891.13" r="0.84" fill="#FFFFFF" opacity="0.55"/><circle cx="381.31" cy="646.29" r="1.14" fill="#FFFFFF" opacity="0.45"/><circle cx="752.13" cy="839.99" r="1.55" fill="#FFFFFF" opacity="0.37"/><circle cx="515.92" cy="727.95" r="1.91" fill="#FFFFFF" opacity="0.27"/><circle cx="581.28" cy="282.55" r="2.76" fill="#FFFFFF" opacity="0.38"/><circle cx="620.06" cy="858.75" r="0.71" fill="#FFFFFF" opacity="0.52"/><circle cx="634.29" cy="475.52" r="0.85" fill="#FFFFFF" opacity="0.51"/><circle cx="849.33" cy="702.55" r="1.28" fill="#FFFFFF" opacity="0.19"/><circle cx="667.21" cy="830.51" r="1" fill="#FFFFFF" opacity="0.56"/><circle cx="266.94" cy="744.13" r="2.9" fill="#8EDCFF" opacity="0.66"/><circle cx="822.12" cy="791.9" r="1.01" fill="#FFFFFF" opacity="0.3"/><circle cx="222.48" cy="445.88" r="3.13" fill="#FFFFFF" opacity="0.32"/><circle cx="759.44" cy="134.96" r="0.76" fill="#FFFFFF" opacity="0.66"/><circle cx="830.42" cy="654.96" r="2.89" fill="#FFFFFF" opacity="0.4"/><circle cx="821.84" cy="89.56" r="2.94" fill="#FFFFFF" opacity="0.68"/><circle cx="665.67" cy="681.89" r="0.75" fill="#FFFFFF" opacity="0.61"/><circle cx="236.43" cy="863.47" r="1.5" fill="#FFFFFF" opacity="0.45"/><circle cx="751.43" cy="503.78" r="0.71" fill="#FFFFFF" opacity="0.71"/><circle cx="572.34" cy="128.85" r="1.26" fill="#FFFFFF" opacity="0.64"/><circle cx="404.12" cy="447.43" r="0.83" fill="#FFFFFF" opacity="0.28"/><circle cx="463.35" cy="416.58" r="0.84" fill="#FFFFFF" opacity="0.6"/><circle cx="795.34" cy="500.36" r="1.71" fill="#FFFFFF" opacity="0.72"/><circle cx="305.16" cy="593.63" r="0.79" fill="#FFFFFF" opacity="0.68"/><circle cx="474.43" cy="510.22" r="3" fill="#FFFFFF" opacity="0.48"/><circle cx="476.85" cy="337.72" r="0.87" fill="#FFFFFF" opacity="0.71"/><circle cx="829.25" cy="567.57" r="0.92" fill="#FFFFFF" opacity="0.54"/><circle cx="398.56" cy="855.67" r="1.19" fill="#FFFFFF" opacity="0.19"/><circle cx="373.11" cy="915.16" r="0.9" fill="#FFFFFF" opacity="0.54"/><circle cx="374.32" cy="869.61" r="0.88" fill="#8EDCFF" opacity="0.2"/><circle cx="475.54" cy="239.45" r="1.8" fill="#FFFFFF" opacity="0.62"/><circle cx="642.42" cy="590.6" r="0.85" fill="#FFFFFF" opacity="0.28"/><circle cx="545" cy="213.27" r="2.11" fill="#8EDCFF" opacity="0.29"/><circle cx="214.71" cy="92.25" r="1.57" fill="#FFFFFF" opacity="0.4"/><circle cx="725.92" cy="194.51" r="0.7" fill="#FFFFFF" opacity="0.72"/><circle cx="283.85" cy="560.7" r="2.39" fill="#FFFFFF" opacity="0.5"/><circle cx="223.9" cy="672.45" r="0.7" fill="#FFFFFF" opacity="0.51"/><circle cx="683.36" cy="802.54" r="2.59" fill="#FFFFFF" opacity="0.44"/><circle cx="344.83" cy="717.87" r="1.6" fill="#FFFFFF" opacity="0.62"/><circle cx="440.32" cy="757.38" r="0.77" fill="#FFFFFF" opacity="0.14"/><circle cx="187.06" cy="550.52" r="0.77" fill="#FFFFFF" opacity="0.43"/><circle cx="706.12" cy="736.61" r="2.1" fill="#FFFFFF" opacity="0.59"/><circle cx="204.42" cy="415.27" r="2.4" fill="#FFFFFF" opacity="0.32"/><circle cx="268.08" cy="256.67" r="1.87" fill="#FFFFFF" opacity="0.48"/><circle cx="238.15" cy="731.8" r="1.21" fill="#FFFFFF" opacity="0.27"/><circle cx="435.05" cy="108.97" r="1.02" fill="#FFFFFF" opacity="0.66"/><circle cx="266.13" cy="454.5" r="0.88" fill="#FFFFFF" opacity="0.32"/><circle cx="190.77" cy="754.41" r="1.34" fill="#FFFFFF" opacity="0.22"/><circle cx="546.16" cy="297.53" r="0.7" fill="#FFFFFF" opacity="0.5"/><circle cx="885.06" cy="767.41" r="2.12" fill="#FFFFFF" opacity="0.54"/><circle cx="180.81" cy="731.39" r="2.52" fill="#FFFFFF" opacity="0.56"/><circle cx="537.84" cy="340.74" r="0.72" fill="#FFFFFF" opacity="0.68"/><circle cx="560.88" cy="85.39" r="1.68" fill="#FFFFFF" opacity="0.24"/><circle cx="397.75" cy="123.82" r="1.66" fill="#FFFFFF" opacity="0.64"/><circle cx="808.72" cy="613.8" r="0.81" fill="#FFFFFF" opacity="0.19"/><circle cx="651.92" cy="746.3" r="0.72" fill="#FFFFFF" opacity="0.39"/><circle cx="726.51" cy="526.64" r="0.92" fill="#FFFFFF" opacity="0.19"/><circle cx="477.75" cy="598.05" r="2.3" fill="#FFFFFF" opacity="0.27"/><circle cx="705.1" cy="642.78" r="2.76" fill="#FFFFFF" opacity="0.39"/><circle cx="268.52" cy="297.85" r="1.83" fill="#FFFFFF" opacity="0.55"/><circle cx="279.92" cy="229.84" r="1.28" fill="#8EDCFF" opacity="0.58"/><circle cx="779.99" cy="844.65" r="1.29" fill="#FFFFFF" opacity="0.65"/><circle cx="930.76" cy="918.42" r="1.24" fill="#FFFFFF" opacity="0.56"/><circle cx="849.35" cy="589.81" r="2.42" fill="#FFFFFF" opacity="0.35"/><circle cx="261.11" cy="261.89" r="0.82" fill="#FFFFFF" opacity="0.41"/><circle cx="567.08" cy="349.79" r="0.78" fill="#FFFFFF" opacity="0.58"/><circle cx="515.4" cy="795.42" r="1.41" fill="#FFFFFF" opacity="0.28"/><circle cx="426.65" cy="411.26" r="0.83" fill="#8EDCFF" opacity="0.16"/><circle cx="248.6" cy="197.27" r="1.06" fill="#FFFFFF" opacity="0.34"/><circle cx="737.15" cy="594.32" r="1.82" fill="#FFFFFF" opacity="0.42"/><circle cx="707.03" cy="390.05" r="1.82" fill="#FFFFFF" opacity="0.57"/><circle cx="905.59" cy="161.04" r="1.85" fill="#FFFFFF" opacity="0.68"/><circle cx="117.02" cy="868.18" r="2.61" fill="#8EDCFF" opacity="0.16"/><circle cx="739.5" cy="83.95" r="2.07" fill="#FFFFFF" opacity="0.24"/><circle cx="769.29" cy="277.37" r="1.4" fill="#FFFFFF" opacity="0.18"/><circle cx="116.51" cy="272.39" r="1.12" fill="#FFFFFF" opacity="0.17"/><circle cx="103.73" cy="320.58" r="1.36" fill="#FFFFFF" opacity="0.43"/><circle cx="536.34" cy="728.86" r="0.89" fill="#FFFFFF" opacity="0.15"/><circle cx="421.94" cy="314.54" r="1.23" fill="#FFFFFF" opacity="0.67"/><circle cx="149.77" cy="821.87" r="1.41" fill="#FFFFFF" opacity="0.17"/><circle cx="499.92" cy="78.67" r="2.38" fill="#FFFFFF" opacity="0.68"/><circle cx="625.98" cy="739.45" r="3.02" fill="#FFFFFF" opacity="0.4"/><circle cx="800.45" cy="478.97" r="2.2" fill="#FFFFFF" opacity="0.43"/><circle cx="359.01" cy="165.89" r="1.28" fill="#FFFFFF" opacity="0.47"/><circle cx="762.74" cy="844.98" r="0.72" fill="#FFFFFF" opacity="0.54"/><circle cx="303.62" cy="634.63" r="2.65" fill="#FFFFFF" opacity="0.41"/><circle cx="367.8" cy="751.21" r="0.81" fill="#FFFFFF" opacity="0.51"/><circle cx="923.69" cy="213.66" r="0.93" fill="#8EDCFF" opacity="0.7"/></g>
  <g data-icon-layer="infinity-cloud"><ellipse cx="198.83" cy="652.52" rx="11.85" ry="11.47" transform="rotate(2.31 198.83 652.52)" opacity="0.81" fill="#43B8FF"/><ellipse cx="759.72" cy="383.36" rx="3.68" ry="4.57" transform="rotate(7.62 759.72 383.36)" opacity="0.79" fill="#B58CFF"/><ellipse cx="235.77" cy="525.92" rx="7.15" ry="5.26" transform="rotate(34.63 235.77 525.92)" opacity="0.78" fill="#62E5FF"/><ellipse cx="464.75" cy="556.68" rx="13.35" ry="13.42" transform="rotate(-12.1 464.75 556.68)" opacity="0.54" fill="#B9F4FF"/><ellipse cx="675.53" cy="735.22" rx="5.3" ry="3.88" transform="rotate(4.55 675.53 735.22)" opacity="0.72" fill="#B58CFF"/><ellipse cx="285.75" cy="364.44" rx="4.58" ry="4.19" transform="rotate(-14.48 285.75 364.44)" opacity="0.86" fill="#62E5FF"/><ellipse cx="565.26" cy="627.34" rx="4.52" ry="5.49" transform="rotate(-17.78 565.26 627.34)" opacity="0.59" fill="#B9F4FF"/><ellipse cx="165.26" cy="411.74" rx="9.67" ry="9.49" transform="rotate(24.58 165.26 411.74)" opacity="0.8" fill="#62E5FF"/><ellipse cx="805.43" cy="639.06" rx="4.27" ry="5.93" transform="rotate(-24.35 805.43 639.06)" opacity="0.88" fill="none" stroke="#E8E1FF" stroke-width="2.4"/><ellipse cx="215.32" cy="310.1" rx="8.24" ry="11.5" transform="rotate(-5.67 215.32 310.1)" opacity="0.62" fill="#C7FAFF"/><ellipse cx="752.01" cy="627.06" rx="9.66" ry="10.69" transform="rotate(-32.68 752.01 627.06)" opacity="0.96" fill="#FF9BD6"/><ellipse cx="704.43" cy="331.91" rx="8.66" ry="6.92" transform="rotate(-6.9 704.43 331.91)" opacity="0.52" fill="#B58CFF"/><ellipse cx="276.47" cy="732.13" rx="6.61" ry="4.98" transform="rotate(-25.76 276.47 732.13)" opacity="0.57" fill="#5E8FFF"/><ellipse cx="251.4" cy="461.3" rx="8.22" ry="6.84" transform="rotate(7.34 251.4 461.3)" opacity="0.57" fill="#62E5FF"/><ellipse cx="244.06" cy="477.28" rx="5.59" ry="3.87" transform="rotate(6.71 244.06 477.28)" opacity="0.87" fill="#43B8FF"/><ellipse cx="631.17" cy="587.85" rx="6.44" ry="6.91" transform="rotate(-29.48 631.17 587.85)" opacity="0.71" fill="#B58CFF"/><ellipse cx="270.73" cy="341.15" rx="6.06" ry="5.83" transform="rotate(1.51 270.73 341.15)" opacity="0.78" fill="#62E5FF"/><ellipse cx="557.92" cy="512.4" rx="8.22" ry="9.52" transform="rotate(2.88 557.92 512.4)" opacity="0.92" fill="#DCD4FF"/><ellipse cx="820.28" cy="330.27" rx="11.72" ry="10.9" transform="rotate(-13.23 820.28 330.27)" opacity="0.66" fill="#E8E1FF"/><ellipse cx="651.11" cy="614.93" rx="7.37" ry="7.25" transform="rotate(-28.34 651.11 614.93)" opacity="0.82" fill="#E8E1FF"/><ellipse cx="153.56" cy="569.96" rx="3.56" ry="5.57" transform="rotate(-11.99 153.56 569.96)" opacity="0.76" fill="#43B8FF"/><ellipse cx="460.16" cy="500.3" rx="6.85" ry="6.23" transform="rotate(25.19 460.16 500.3)" opacity="0.53" fill="#DCD4FF"/><ellipse cx="399.03" cy="348.41" rx="6.57" ry="5.82" transform="rotate(-0.37 399.03 348.41)" opacity="0.94" fill="#62E5FF"/><ellipse cx="377.45" cy="676.72" rx="5.55" ry="4.43" transform="rotate(-1.45 377.45 676.72)" opacity="0.85" fill="#62E5FF"/><ellipse cx="343.18" cy="407.51" rx="11.49" ry="12.03" transform="rotate(-24.78 343.18 407.51)" opacity="0.76" fill="#43B8FF"/><ellipse cx="611.9" cy="582.55" rx="9.31" ry="8.91" transform="rotate(15.51 611.9 582.55)" opacity="0.97" fill="#E193FF"/><ellipse cx="904.81" cy="406.9" rx="7.43" ry="8.57" transform="rotate(3.93 904.81 406.9)" opacity="0.61" fill="#FF9BD6"/><ellipse cx="845.26" cy="534.66" rx="5.51" ry="5.27" transform="rotate(-20.46 845.26 534.66)" opacity="0.97" fill="#E193FF"/><ellipse cx="795.03" cy="639.63" rx="4.34" ry="4.68" transform="rotate(14.17 795.03 639.63)" opacity="0.94" fill="#E193FF"/><ellipse cx="210.78" cy="417.72" rx="5.83" ry="6.93" transform="rotate(12.5 210.78 417.72)" opacity="0.78" fill="#C7FAFF"/><ellipse cx="261.48" cy="647.32" rx="4.92" ry="3.67" transform="rotate(-19.49 261.48 647.32)" opacity="0.9" fill="#43B8FF"/><ellipse cx="844.1" cy="463.1" rx="4.82" ry="5.42" transform="rotate(-24.13 844.1 463.1)" opacity="0.8" fill="#FF9BD6"/><ellipse cx="853.48" cy="565.13" rx="6.47" ry="6.53" transform="rotate(27.79 853.48 565.13)" opacity="0.76" fill="#B58CFF"/><ellipse cx="465.67" cy="547.96" rx="4.69" ry="5.04" transform="rotate(-5.21 465.67 547.96)" opacity="0.81" fill="#FFFFFF"/><ellipse cx="432.8" cy="595.32" rx="6.92" ry="8.29" transform="rotate(-22.89 432.8 595.32)" opacity="0.77" fill="#FFFFFF"/><ellipse cx="292.7" cy="268.37" rx="12.29" ry="10.25" transform="rotate(-25.02 292.7 268.37)" opacity="0.71" fill="#62E5FF"/><ellipse cx="795.67" cy="599.22" rx="9.2" ry="9.33" transform="rotate(31.7 795.67 599.22)" opacity="0.81" fill="#E193FF"/><ellipse cx="212.45" cy="537.77" rx="4.63" ry="4.85" transform="rotate(-31.41 212.45 537.77)" opacity="0.74" fill="#C7FAFF"/><ellipse cx="552.48" cy="481.65" rx="5.13" ry="4.69" transform="rotate(29.11 552.48 481.65)" opacity="0.55" fill="#B9F4FF"/><ellipse cx="243.47" cy="722.05" rx="5.52" ry="6.39" transform="rotate(-14.86 243.47 722.05)" opacity="0.54" fill="none" stroke="#5E8FFF" stroke-width="2.4"/><ellipse cx="655.47" cy="645.28" rx="9.53" ry="6.92" transform="rotate(7.34 655.47 645.28)" opacity="0.53" fill="none" stroke="#8568FF" stroke-width="2.4"/><ellipse cx="858.31" cy="610.51" rx="10.59" ry="10.23" transform="rotate(-16.63 858.31 610.51)" opacity="0.95" fill="#FF9BD6"/><ellipse cx="522.75" cy="525.66" rx="11.6" ry="9.44" transform="rotate(26.39 522.75 525.66)" opacity="0.8" fill="#DCD4FF"/><ellipse cx="329.51" cy="715.83" rx="6.79" ry="6.58" transform="rotate(26.49 329.51 715.83)" opacity="0.79" fill="#43B8FF"/><ellipse cx="794.86" cy="377.65" rx="7.54" ry="10.83" transform="rotate(30.97 794.86 377.65)" opacity="0.74" fill="#FF9BD6"/><ellipse cx="165.5" cy="544.63" rx="11.15" ry="11.91" transform="rotate(11.78 165.5 544.63)" opacity="0.81" fill="#43B8FF"/><ellipse cx="306.44" cy="316.2" rx="7.48" ry="7.24" transform="rotate(-34.36 306.44 316.2)" opacity="0.81" fill="#5E8FFF"/><ellipse cx="582.8" cy="634.73" rx="3.62" ry="4.91" transform="rotate(-21.21 582.8 634.73)" opacity="0.7" fill="#B9F4FF"/><ellipse cx="507.04" cy="533.43" rx="6.15" ry="5.57" transform="rotate(-22.91 507.04 533.43)" opacity="0.56" fill="#DCD4FF"/><ellipse cx="869.46" cy="455.15" rx="8.18" ry="6.68" transform="rotate(11.94 869.46 455.15)" opacity="0.89" fill="#FF9BD6"/><ellipse cx="189.33" cy="390.38" rx="5.48" ry="5.04" transform="rotate(-31.06 189.33 390.38)" opacity="0.67" fill="#8CEBFF"/><ellipse cx="294.44" cy="308.92" rx="9.23" ry="7.33" transform="rotate(-28.05 294.44 308.92)" opacity="0.77" fill="#5E8FFF"/><ellipse cx="712.15" cy="341.84" rx="4.99" ry="7.76" transform="rotate(23.32 712.15 341.84)" opacity="0.53" fill="#8568FF"/><ellipse cx="794.1" cy="567.96" rx="10.69" ry="12.54" transform="rotate(18.01 794.1 567.96)" opacity="0.56" fill="#8568FF"/><ellipse cx="209.76" cy="489.16" rx="9.14" ry="6.58" transform="rotate(27.71 209.76 489.16)" opacity="0.6" fill="none" stroke="#43B8FF" stroke-width="2.4"/><ellipse cx="393.04" cy="397.86" rx="4.46" ry="4.1" transform="rotate(-12.74 393.04 397.86)" opacity="0.64" fill="none" stroke="#62E5FF" stroke-width="2.4"/><ellipse cx="521.15" cy="411.64" rx="5.95" ry="5.46" transform="rotate(-1.96 521.15 411.64)" opacity="0.92" fill="#B9F4FF"/><ellipse cx="275.81" cy="670.72" rx="10.31" ry="13.23" transform="rotate(24.59 275.81 670.72)" opacity="0.9" fill="#8CEBFF"/><ellipse cx="686.15" cy="346.58" rx="8.25" ry="8.39" transform="rotate(29.3 686.15 346.58)" opacity="0.9" fill="#B58CFF"/><ellipse cx="288.8" cy="352.2" rx="7.95" ry="9.05" transform="rotate(-6.98 288.8 352.2)" opacity="0.88" fill="#5E8FFF"/><ellipse cx="223.63" cy="707.06" rx="7.29" ry="9.8" transform="rotate(-32.3 223.63 707.06)" opacity="0.64" fill="#8CEBFF"/><ellipse cx="633.31" cy="620.85" rx="8.66" ry="10.53" transform="rotate(-4.92 633.31 620.85)" opacity="0.65" fill="none" stroke="#E193FF" stroke-width="2.4"/><ellipse cx="218.46" cy="434.04" rx="9.95" ry="9.61" transform="rotate(-30.23 218.46 434.04)" opacity="0.85" fill="#8CEBFF"/><ellipse cx="855.5" cy="538.47" rx="6.16" ry="5.76" transform="rotate(32.89 855.5 538.47)" opacity="0.86" fill="none" stroke="#E193FF" stroke-width="2.4"/><ellipse cx="502.86" cy="562.37" rx="11.45" ry="7.43" transform="rotate(4.83 502.86 562.37)" opacity="0.89" fill="none" stroke="#FFFFFF" stroke-width="2.4"/><ellipse cx="905.94" cy="508.38" rx="6.67" ry="7.48" transform="rotate(-8.99 905.94 508.38)" opacity="0.97" fill="#B58CFF"/><ellipse cx="573.47" cy="469.88" rx="10.93" ry="12.43" transform="rotate(-3.38 573.47 469.88)" opacity="0.74" fill="#DCD4FF"/><ellipse cx="747.71" cy="611.72" rx="8.12" ry="9.89" transform="rotate(3.52 747.71 611.72)" opacity="0.52" fill="none" stroke="#E193FF" stroke-width="2.4"/><ellipse cx="840.08" cy="403.03" rx="4.56" ry="4.04" transform="rotate(6.22 840.08 403.03)" opacity="0.73" fill="#E8E1FF"/><ellipse cx="794.79" cy="490.49" rx="3.92" ry="3.89" transform="rotate(-12.53 794.79 490.49)" opacity="0.78" fill="none" stroke="#8568FF" stroke-width="2.4"/><ellipse cx="429.14" cy="549.2" rx="5.12" ry="4.81" transform="rotate(-28.49 429.14 549.2)" opacity="0.91" fill="#DCD4FF"/><ellipse cx="773.76" cy="639.17" rx="6.26" ry="6.36" transform="rotate(-4.53 773.76 639.17)" opacity="0.62" fill="#E8E1FF"/><ellipse cx="155.01" cy="511.39" rx="11.32" ry="12.9" transform="rotate(-33.2 155.01 511.39)" opacity="0.92" fill="#43B8FF"/><ellipse cx="744" cy="333.09" rx="14.65" ry="10.37" transform="rotate(4.19 744 333.09)" opacity="0.64" fill="#B58CFF"/><ellipse cx="580.17" cy="438.2" rx="7.91" ry="7.57" transform="rotate(10.11 580.17 438.2)" opacity="0.89" fill="#B9F4FF"/><ellipse cx="586.51" cy="609.99" rx="3.66" ry="4.91" transform="rotate(22.9 586.51 609.99)" opacity="0.94" fill="#DCD4FF"/><ellipse cx="711.64" cy="361.07" rx="7.19" ry="9.16" transform="rotate(-18.95 711.64 361.07)" opacity="0.66" fill="#E193FF"/><ellipse cx="746.75" cy="351.3" rx="11.06" ry="10.35" transform="rotate(15.99 746.75 351.3)" opacity="0.73" fill="#B58CFF"/><ellipse cx="392.7" cy="643.6" rx="6.1" ry="5.49" transform="rotate(30.4 392.7 643.6)" opacity="0.59" fill="#5E8FFF"/><ellipse cx="297.07" cy="312.75" rx="9.36" ry="10.17" transform="rotate(29.34 297.07 312.75)" opacity="0.77" fill="#5E8FFF"/><ellipse cx="686.58" cy="342.12" rx="4.49" ry="4.81" transform="rotate(-9.05 686.58 342.12)" opacity="0.59" fill="#E193FF"/><ellipse cx="425.16" cy="620.36" rx="10.34" ry="14.27" transform="rotate(12.93 425.16 620.36)" opacity="0.85" fill="#DCD4FF"/><ellipse cx="902.57" cy="525.57" rx="6.93" ry="6.06" transform="rotate(-31.87 902.57 525.57)" opacity="0.55" fill="#E8E1FF"/><ellipse cx="763.85" cy="547.98" rx="10.97" ry="11.2" transform="rotate(-32.28 763.85 547.98)" opacity="0.73" fill="#B58CFF"/><ellipse cx="870.29" cy="576.79" rx="9.36" ry="11.73" transform="rotate(-21.97 870.29 576.79)" opacity="0.72" fill="#8568FF"/><ellipse cx="870.72" cy="593.42" rx="6.7" ry="5.87" transform="rotate(18.62 870.72 593.42)" opacity="0.86" fill="#E8E1FF"/><ellipse cx="833.51" cy="360.98" rx="5.13" ry="4.2" transform="rotate(16.56 833.51 360.98)" opacity="0.69" fill="#E8E1FF"/><ellipse cx="207.94" cy="365.8" rx="5.27" ry="6.39" transform="rotate(-4.68 207.94 365.8)" opacity="0.95" fill="#5E8FFF"/><ellipse cx="720.14" cy="703.93" rx="6.08" ry="4.53" transform="rotate(8.81 720.14 703.93)" opacity="0.78" fill="#B58CFF"/><ellipse cx="334.2" cy="422.18" rx="6.89" ry="7.33" transform="rotate(-15.52 334.2 422.18)" opacity="0.97" fill="#C7FAFF"/><ellipse cx="241.03" cy="415.71" rx="11.35" ry="9.81" transform="rotate(-0.7 241.03 415.71)" opacity="0.56" fill="#8CEBFF"/><ellipse cx="310.21" cy="668.07" rx="8" ry="9.68" transform="rotate(-9.88 310.21 668.07)" opacity="0.73" fill="#C7FAFF"/><ellipse cx="280.15" cy="667.44" rx="5.52" ry="4.38" transform="rotate(22.57 280.15 667.44)" opacity="0.69" fill="#62E5FF"/><ellipse cx="808.72" cy="716.45" rx="5.71" ry="5.18" transform="rotate(32 808.72 716.45)" opacity="0.57" fill="#B58CFF"/><ellipse cx="179.85" cy="339.45" rx="7.81" ry="6.29" transform="rotate(-1.64 179.85 339.45)" opacity="0.7" fill="#8CEBFF"/><ellipse cx="480.18" cy="532.43" rx="6.64" ry="7.2" transform="rotate(-29.96 480.18 532.43)" opacity="0.71" fill="#B9F4FF"/><ellipse cx="219.26" cy="665.69" rx="11.05" ry="13.03" transform="rotate(19.04 219.26 665.69)" opacity="0.56" fill="#43B8FF"/><ellipse cx="657.54" cy="427.09" rx="13.06" ry="10.93" transform="rotate(26.46 657.54 427.09)" opacity="0.88" fill="none" stroke="#E193FF" stroke-width="2.4"/><ellipse cx="638.87" cy="431.43" rx="11.06" ry="8.46" transform="rotate(1.27 638.87 431.43)" opacity="0.82" fill="#E193FF"/><ellipse cx="375.85" cy="323.44" rx="4.42" ry="4.97" transform="rotate(26.94 375.85 323.44)" opacity="0.67" fill="#5E8FFF"/><ellipse cx="738.72" cy="347.5" rx="6.04" ry="4.72" transform="rotate(5.25 738.72 347.5)" opacity="0.66" fill="#8568FF"/><ellipse cx="592.03" cy="662.51" rx="4.92" ry="7.47" transform="rotate(-6.32 592.03 662.51)" opacity="0.89" fill="#DCD4FF"/><ellipse cx="229.34" cy="642.96" rx="6.1" ry="4.58" transform="rotate(11.79 229.34 642.96)" opacity="0.96" fill="#43B8FF"/><ellipse cx="274.24" cy="401.32" rx="3.77" ry="5.52" transform="rotate(34.36 274.24 401.32)" opacity="0.82" fill="#C7FAFF"/><ellipse cx="219.65" cy="623.38" rx="11.03" ry="8.43" transform="rotate(4.08 219.65 623.38)" opacity="0.96" fill="#62E5FF"/><ellipse cx="457.21" cy="614.45" rx="6.07" ry="4.91" transform="rotate(-25.63 457.21 614.45)" opacity="0.55" fill="#DCD4FF"/><ellipse cx="308.22" cy="309.63" rx="7.94" ry="7.11" transform="rotate(-31.38 308.22 309.63)" opacity="0.86" fill="#62E5FF"/><ellipse cx="828.18" cy="372.18" rx="5.08" ry="6.15" transform="rotate(-27.28 828.18 372.18)" opacity="0.97" fill="#FF9BD6"/><ellipse cx="761.14" cy="666.93" rx="9.58" ry="9.32" transform="rotate(25.43 761.14 666.93)" opacity="0.9" fill="#B58CFF"/><ellipse cx="823.23" cy="392.52" rx="9.39" ry="13.67" transform="rotate(-27.01 823.23 392.52)" opacity="0.66" fill="#FF9BD6"/><ellipse cx="563.47" cy="466.51" rx="10.15" ry="8" transform="rotate(-9.08 563.47 466.51)" opacity="0.87" fill="#DCD4FF"/><ellipse cx="270.91" cy="744.97" rx="13.68" ry="9.8" transform="rotate(30.84 270.91 744.97)" opacity="0.58" fill="#43B8FF"/><ellipse cx="316.33" cy="632.26" rx="9.75" ry="7.35" transform="rotate(30.61 316.33 632.26)" opacity="0.86" fill="none" stroke="#8CEBFF" stroke-width="2.4"/><ellipse cx="322.22" cy="707.52" rx="4.74" ry="4.15" transform="rotate(-4.88 322.22 707.52)" opacity="0.88" fill="#C7FAFF"/><ellipse cx="266.22" cy="396.34" rx="7.21" ry="6.37" transform="rotate(-20.48 266.22 396.34)" opacity="0.68" fill="#5E8FFF"/><ellipse cx="416.41" cy="621.65" rx="4.96" ry="5.64" transform="rotate(-6.07 416.41 621.65)" opacity="0.62" fill="#C7FAFF"/><ellipse cx="275.03" cy="371.87" rx="4" ry="5.41" transform="rotate(-31.21 275.03 371.87)" opacity="0.83" fill="#43B8FF"/><ellipse cx="613.33" cy="428.19" rx="3.84" ry="3.26" transform="rotate(37.32 613.33 428.19)" opacity="0.65" fill="#8568FF"/><ellipse cx="570.42" cy="632.67" rx="3.04" ry="2.97" transform="rotate(37.73 570.42 632.67)" opacity="0.73" fill="#FFFFFF"/><ellipse cx="512.64" cy="541.35" rx="2.03" ry="1.91" transform="rotate(3.24 512.64 541.35)" opacity="0.67" fill="#B9F4FF"/><ellipse cx="687.22" cy="673.04" rx="2.06" ry="1.86" transform="rotate(19.15 687.22 673.04)" opacity="0.43" fill="#E8E1FF"/><ellipse cx="603.19" cy="465.18" rx="2.12" ry="1.82" transform="rotate(75.99 603.19 465.18)" opacity="0.62" fill="#B58CFF"/><ellipse cx="749.9" cy="321.35" rx="3.39" ry="2.89" transform="rotate(75.1 749.9 321.35)" opacity="0.42" fill="#E8E1FF"/><ellipse cx="208.58" cy="375.31" rx="4.92" ry="5.08" transform="rotate(22.01 208.58 375.31)" opacity="0.5" fill="#C7FAFF"/><ellipse cx="227.53" cy="660.23" rx="2.01" ry="2.19" transform="rotate(30.18 227.53 660.23)" opacity="0.79" fill="#43B8FF"/><ellipse cx="746.94" cy="553.88" rx="2.68" ry="2.73" transform="rotate(46.05 746.94 553.88)" opacity="0.41" fill="#E8E1FF"/><ellipse cx="468.97" cy="546.98" rx="3.2" ry="3.29" transform="rotate(17.08 468.97 546.98)" opacity="0.84" fill="#FFFFFF"/><ellipse cx="257.17" cy="399.19" rx="4.12" ry="4.39" transform="rotate(69.37 257.17 399.19)" opacity="0.71" fill="#C7FAFF"/><ellipse cx="902.51" cy="456.28" rx="4.99" ry="4.94" transform="rotate(20.16 902.51 456.28)" opacity="0.6" fill="#FF9BD6"/><ellipse cx="241.64" cy="409.3" rx="2.11" ry="2.36" transform="rotate(75.9 241.64 409.3)" opacity="0.46" fill="#C7FAFF"/><ellipse cx="336.58" cy="556.71" rx="3.97" ry="4.56" transform="rotate(47.14 336.58 556.71)" opacity="0.66" fill="#8CEBFF"/><ellipse cx="492.35" cy="497.91" rx="3.25" ry="2.77" transform="rotate(55.03 492.35 497.91)" opacity="0.7" fill="#B9F4FF"/><ellipse cx="700.23" cy="740.28" rx="1.86" ry="1.66" transform="rotate(48.45 700.23 740.28)" opacity="0.62" fill="#B58CFF"/><ellipse cx="374.97" cy="560.5" rx="4.42" ry="3.59" transform="rotate(13.03 374.97 560.5)" opacity="0.65" fill="#8CEBFF"/><ellipse cx="826.5" cy="643.3" rx="2.73" ry="2.68" transform="rotate(21.11 826.5 643.3)" opacity="0.4" fill="#B58CFF"/><ellipse cx="882.4" cy="513.2" rx="3.54" ry="4.14" transform="rotate(81.77 882.4 513.2)" opacity="0.74" fill="#FF9BD6"/><ellipse cx="295.55" cy="360.04" rx="3.12" ry="3.45" transform="rotate(21.59 295.55 360.04)" opacity="0.48" fill="#8CEBFF"/><ellipse cx="387.64" cy="383.51" rx="4.74" ry="5.65" transform="rotate(43.11 387.64 383.51)" opacity="0.77" fill="#C7FAFF"/><ellipse cx="190.61" cy="604.27" rx="5.16" ry="4.37" transform="rotate(67.59 190.61 604.27)" opacity="0.36" fill="#C7FAFF"/><ellipse cx="745.13" cy="427.77" rx="4.63" ry="5.12" transform="rotate(36.46 745.13 427.77)" opacity="0.44" fill="#FF9BD6"/><ellipse cx="773.66" cy="607.84" rx="3.43" ry="3.73" transform="rotate(36 773.66 607.84)" opacity="0.58" fill="#8568FF"/><ellipse cx="585.8" cy="427.56" rx="4.76" ry="4.99" transform="rotate(66.06 585.8 427.56)" opacity="0.44" fill="#B9F4FF"/><ellipse cx="255.44" cy="324.77" rx="2.73" ry="2.27" transform="rotate(50.35 255.44 324.77)" opacity="0.8" fill="#5E8FFF"/><ellipse cx="265.86" cy="613.35" rx="2.49" ry="2.91" transform="rotate(28.36 265.86 613.35)" opacity="0.76" fill="#C7FAFF"/><ellipse cx="583.21" cy="551.01" rx="2.27" ry="2.5" transform="rotate(50.39 583.21 551.01)" opacity="0.57" fill="#B9F4FF"/><ellipse cx="292.24" cy="386.88" rx="2.22" ry="1.89" transform="rotate(80.51 292.24 386.88)" opacity="0.74" fill="#8CEBFF"/><ellipse cx="763.76" cy="344.81" rx="4.87" ry="3.79" transform="rotate(26.16 763.76 344.81)" opacity="0.64" fill="#E8E1FF"/><ellipse cx="837.6" cy="630.88" rx="3.16" ry="3.07" transform="rotate(22.58 837.6 630.88)" opacity="0.78" fill="#E193FF"/><ellipse cx="839.44" cy="467.37" rx="1.88" ry="2.14" transform="rotate(42.25 839.44 467.37)" opacity="0.43" fill="#FF9BD6"/><ellipse cx="153.08" cy="625.1" rx="4.85" ry="5.6" transform="rotate(70.49 153.08 625.1)" opacity="0.64" fill="#C7FAFF"/><ellipse cx="611.86" cy="633.81" rx="3.38" ry="3.13" transform="rotate(73.74 611.86 633.81)" opacity="0.64" fill="#B58CFF"/><ellipse cx="615.91" cy="676.4" rx="5.14" ry="5.99" transform="rotate(8.53 615.91 676.4)" opacity="0.39" fill="#B58CFF"/><ellipse cx="246.28" cy="636.89" rx="4.61" ry="3.68" transform="rotate(25.71 246.28 636.89)" opacity="0.75" fill="#5E8FFF"/><ellipse cx="643.98" cy="430.36" rx="1.85" ry="1.85" transform="rotate(70.85 643.98 430.36)" opacity="0.54" fill="#B58CFF"/><ellipse cx="793" cy="450.72" rx="2.63" ry="2.65" transform="rotate(52.13 793 450.72)" opacity="0.43" fill="#B58CFF"/><ellipse cx="391.07" cy="466.91" rx="4.22" ry="3.85" transform="rotate(86.34 391.07 466.91)" opacity="0.36" fill="#C7FAFF"/><ellipse cx="810.36" cy="685.3" rx="2.9" ry="2.83" transform="rotate(50.01 810.36 685.3)" opacity="0.48" fill="#E193FF"/><ellipse cx="537.56" cy="460.66" rx="4.33" ry="3.6" transform="rotate(30.22 537.56 460.66)" opacity="0.4" fill="#B9F4FF"/><ellipse cx="182.55" cy="484.41" rx="1.97" ry="2.08" transform="rotate(49.25 182.55 484.41)" opacity="0.5" fill="#43B8FF"/><ellipse cx="442.07" cy="636.36" rx="4.92" ry="3.97" transform="rotate(56.16 442.07 636.36)" opacity="0.72" fill="#FFFFFF"/><ellipse cx="211.92" cy="297.62" rx="4.42" ry="3.89" transform="rotate(50.85 211.92 297.62)" opacity="0.39" fill="#43B8FF"/><ellipse cx="247.38" cy="688.28" rx="4.48" ry="4.22" transform="rotate(13 247.38 688.28)" opacity="0.56" fill="#C7FAFF"/><ellipse cx="647.17" cy="661.37" rx="2.88" ry="2.73" transform="rotate(53.98 647.17 661.37)" opacity="0.67" fill="#E193FF"/><ellipse cx="334.59" cy="608.46" rx="1.8" ry="1.74" transform="rotate(8.15 334.59 608.46)" opacity="0.65" fill="#8CEBFF"/><ellipse cx="889.14" cy="489.92" rx="2.35" ry="2.07" transform="rotate(79.02 889.14 489.92)" opacity="0.84" fill="#B58CFF"/><ellipse cx="557.2" cy="509.07" rx="3.91" ry="3.58" transform="rotate(44.23 557.2 509.07)" opacity="0.36" fill="#B9F4FF"/><ellipse cx="422.51" cy="658.1" rx="3.17" ry="3.03" transform="rotate(17.5 422.51 658.1)" opacity="0.48" fill="#FFFFFF"/><ellipse cx="367.77" cy="308.49" rx="1.75" ry="1.36" transform="rotate(13.23 367.77 308.49)" opacity="0.62" fill="#8CEBFF"/><ellipse cx="849.21" cy="642.79" rx="1.65" ry="1.63" transform="rotate(13.37 849.21 642.79)" opacity="0.4" fill="#E8E1FF"/><ellipse cx="402.94" cy="635.32" rx="3.38" ry="2.96" transform="rotate(3.79 402.94 635.32)" opacity="0.46" fill="#5E8FFF"/><ellipse cx="817.3" cy="530.64" rx="4.47" ry="3.97" transform="rotate(52.15 817.3 530.64)" opacity="0.79" fill="#E193FF"/><ellipse cx="249.08" cy="322.53" rx="4.13" ry="4.84" transform="rotate(7.3 249.08 322.53)" opacity="0.64" fill="#5E8FFF"/><ellipse cx="502.73" cy="454.59" rx="2.27" ry="2.47" transform="rotate(47.65 502.73 454.59)" opacity="0.51" fill="#FFFFFF"/><ellipse cx="423.18" cy="393.73" rx="15.52" ry="12.38" transform="rotate(-30.44 423.18 393.73)" opacity="0.72" fill="#FFFFFF" filter="url(#particleGlow)"/><ellipse cx="399.84" cy="673.02" rx="6.29" ry="8.03" transform="rotate(-11.59 399.84 673.02)" opacity="0.66" fill="#43B8FF" filter="url(#particleGlow)"/><ellipse cx="300.92" cy="343.11" rx="12.8" ry="11.36" transform="rotate(32.04 300.92 343.11)" opacity="0.97" fill="#43B8FF" filter="url(#particleGlow)"/><ellipse cx="757.32" cy="673.83" rx="10.16" ry="14.63" transform="rotate(29.35 757.32 673.83)" opacity="0.76" fill="#E193FF" filter="url(#particleGlow)"/><ellipse cx="362.08" cy="651.85" rx="11.81" ry="13.15" transform="rotate(-24.45 362.08 651.85)" opacity="0.72" fill="#62E5FF" filter="url(#particleGlow)"/><ellipse cx="586.01" cy="402.14" rx="5.64" ry="5.65" transform="rotate(-19.28 586.01 402.14)" opacity="0.79" fill="#B9F4FF" filter="url(#particleGlow)"/><ellipse cx="299.88" cy="682.61" rx="19.28" ry="12.87" transform="rotate(14.38 299.88 682.61)" opacity="0.62" fill="#5E8FFF" filter="url(#particleGlow)"/><ellipse cx="224.06" cy="655.82" rx="6.71" ry="4.81" transform="rotate(15.08 224.06 655.82)" opacity="0.96" fill="#62E5FF" filter="url(#particleGlow)"/><ellipse cx="803.08" cy="334.37" rx="12.47" ry="12.72" transform="rotate(8.14 803.08 334.37)" opacity="0.71" fill="#E193FF" filter="url(#particleGlow)"/><ellipse cx="717.87" cy="336.65" rx="18.59" ry="16.92" transform="rotate(-0.42 717.87 336.65)" opacity="0.6" fill="#E193FF" filter="url(#particleGlow)"/><ellipse cx="216.54" cy="295.93" rx="16.18" ry="12.5" transform="rotate(34.9 216.54 295.93)" opacity="0.94" fill="#62E5FF" filter="url(#particleGlow)"/><ellipse cx="267.91" cy="703.77" rx="13.31" ry="13.48" transform="rotate(10.49 267.91 703.77)" opacity="0.58" fill="#43B8FF" filter="url(#particleGlow)"/><ellipse cx="400.86" cy="566.37" rx="5.1" ry="6.28" transform="rotate(-29.74 400.86 566.37)" opacity="0.88" fill="#C7FAFF" filter="url(#particleGlow)"/><ellipse cx="844.42" cy="399.28" rx="11.04" ry="14.48" transform="rotate(-2.05 844.42 399.28)" opacity="0.53" fill="#FF9BD6" filter="url(#particleGlow)"/><ellipse cx="214.57" cy="598.1" rx="11.79" ry="13.71" transform="rotate(33.74 214.57 598.1)" opacity="0.8" fill="#62E5FF" filter="url(#particleGlow)"/><ellipse cx="826.3" cy="503.21" rx="10.14" ry="15.5" transform="rotate(-34.73 826.3 503.21)" opacity="0.56" fill="#FF9BD6" filter="url(#particleGlow)"/><ellipse cx="274.28" cy="654.65" rx="8.63" ry="6" transform="rotate(-20.31 274.28 654.65)" opacity="0.88" fill="#8CEBFF" filter="url(#particleGlow)"/><ellipse cx="718.06" cy="349.53" rx="13.21" ry="11.42" transform="rotate(-0.67 718.06 349.53)" opacity="0.64" fill="#E193FF" filter="url(#particleGlow)"/><ellipse cx="846.56" cy="515.94" rx="5.45" ry="4" transform="rotate(7.43 846.56 515.94)" opacity="0.87" fill="#FF9BD6" filter="url(#particleGlow)"/><ellipse cx="785.3" cy="656.07" rx="13.22" ry="14.94" transform="rotate(17.64 785.3 656.07)" opacity="0.78" fill="#B58CFF" filter="url(#particleGlow)"/><ellipse cx="711.68" cy="357.61" rx="12.83" ry="11.43" transform="rotate(-33.66 711.68 357.61)" opacity="0.9" fill="none" stroke="#E8E1FF" stroke-width="2.4"/><ellipse cx="226.8" cy="359.56" rx="10.76" ry="10.24" transform="rotate(23.82 226.8 359.56)" opacity="0.81" fill="#62E5FF" filter="url(#particleGlow)"/><ellipse cx="353.34" cy="333.96" rx="14.68" ry="15.51" transform="rotate(17.18 353.34 333.96)" opacity="0.91" fill="#8CEBFF" filter="url(#particleGlow)"/><ellipse cx="572.02" cy="345.56" rx="15.95" ry="12.19" transform="rotate(-4.06 572.02 345.56)" opacity="0.82" fill="#FFFFFF" filter="url(#particleGlow)"/><ellipse cx="282.73" cy="341.58" rx="5.88" ry="5.3" transform="rotate(12.94 282.73 341.58)" opacity="0.87" fill="#C7FAFF" filter="url(#particleGlow)"/><ellipse cx="365.9" cy="713.58" rx="12.47" ry="8.76" transform="rotate(-20.29 365.9 713.58)" opacity="0.79" fill="#43B8FF" filter="url(#particleGlow)"/><ellipse cx="231.3" cy="647.88" rx="13.86" ry="15.25" transform="rotate(-5.56 231.3 647.88)" opacity="0.64" fill="#62E5FF" filter="url(#particleGlow)"/><ellipse cx="273.89" cy="382.24" rx="10.41" ry="12.91" transform="rotate(-11.27 273.89 382.24)" opacity="0.72" fill="#8CEBFF" filter="url(#particleGlow)"/><ellipse cx="365.77" cy="641.85" rx="19.42" ry="12.96" transform="rotate(-2.13 365.77 641.85)" opacity="0.64" fill="#8CEBFF" filter="url(#particleGlow)"/><ellipse cx="824.98" cy="474.76" rx="14.09" ry="9.95" transform="rotate(21.36 824.98 474.76)" opacity="0.73" fill="#8568FF" filter="url(#particleGlow)"/><ellipse cx="389.43" cy="576.41" rx="13.45" ry="14.02" transform="rotate(-29 389.43 576.41)" opacity="0.57" fill="#8CEBFF" filter="url(#particleGlow)"/><ellipse cx="343.03" cy="365.82" rx="14.32" ry="14.89" transform="rotate(1.75 343.03 365.82)" opacity="0.75" fill="#62E5FF" filter="url(#particleGlow)"/><ellipse cx="290.68" cy="375.53" rx="15.94" ry="16.72" transform="rotate(0.3 290.68 375.53)" opacity="0.57" fill="none" stroke="#8CEBFF" stroke-width="2.4"/><ellipse cx="842.03" cy="355.11" rx="18.8" ry="16.2" transform="rotate(30.83 842.03 355.11)" opacity="0.88" fill="#B58CFF" filter="url(#particleGlow)"/><ellipse cx="755.88" cy="374.38" rx="16.03" ry="10.78" transform="rotate(-30.94 755.88 374.38)" opacity="0.83" fill="#B58CFF" filter="url(#particleGlow)"/><ellipse cx="805.2" cy="367.35" rx="12.28" ry="14.67" transform="rotate(19.08 805.2 367.35)" opacity="0.61" fill="#FF9BD6" filter="url(#particleGlow)"/><ellipse cx="828.95" cy="445.86" rx="7.43" ry="5.46" transform="rotate(-27.59 828.95 445.86)" opacity="0.94" fill="#E8E1FF" filter="url(#particleGlow)"/><ellipse cx="256.79" cy="656.07" rx="13.57" ry="13.06" transform="rotate(2.28 256.79 656.07)" opacity="0.84" fill="#43B8FF" filter="url(#particleGlow)"/><ellipse cx="514.16" cy="459.81" rx="15.23" ry="11.59" transform="rotate(17.16 514.16 459.81)" opacity="0.94" fill="#DCD4FF" filter="url(#particleGlow)"/><ellipse cx="763.79" cy="760.98" rx="15.25" ry="12.2" transform="rotate(14.26 763.79 760.98)" opacity="0.68" fill="none" stroke="#B58CFF" stroke-width="2.4"/><ellipse cx="567.51" cy="521.09" rx="11.11" ry="16.07" transform="rotate(-3.74 567.51 521.09)" opacity="0.74" fill="#FFFFFF" filter="url(#particleGlow)"/><ellipse cx="373.08" cy="656.94" rx="15.5" ry="10.67" transform="rotate(7.91 373.08 656.94)" opacity="0.95" fill="#43B8FF" filter="url(#particleGlow)"/><ellipse cx="762.03" cy="340.63" rx="14.33" ry="14.73" transform="rotate(-7.35 762.03 340.63)" opacity="0.53" fill="#E8E1FF" filter="url(#particleGlow)"/><ellipse cx="518.82" cy="553.49" rx="11.72" ry="13.11" transform="rotate(-10.62 518.82 553.49)" opacity="0.63" fill="#FFFFFF" filter="url(#particleGlow)"/><ellipse cx="869.29" cy="562.16" rx="17.53" ry="19.67" transform="rotate(-20.88 869.29 562.16)" opacity="0.97" fill="#E193FF" filter="url(#particleGlow)"/><ellipse cx="672.36" cy="370.77" rx="14.41" ry="12.82" transform="rotate(19.09 672.36 370.77)" opacity="0.76" fill="#8568FF" filter="url(#particleGlow)"/><ellipse cx="639.9" cy="639.44" rx="13.33" ry="11.29" transform="rotate(-17.67 639.9 639.44)" opacity="0.9" fill="#E193FF" filter="url(#particleGlow)"/><ellipse cx="251.39" cy="678.38" rx="8.55" ry="8.38" transform="rotate(-30.79 251.39 678.38)" opacity="0.87" fill="#43B8FF" filter="url(#particleGlow)"/><ellipse cx="192.58" cy="430.33" rx="8.92" ry="6.28" transform="rotate(-3.82 192.58 430.33)" opacity="0.53" fill="#C7FAFF" filter="url(#particleGlow)"/><ellipse cx="599.81" cy="574.94" rx="19.92" ry="19.65" transform="rotate(-15.8 599.81 574.94)" opacity="0.82" fill="#B9F4FF" filter="url(#particleGlow)"/><ellipse cx="179.36" cy="466.46" rx="7.72" ry="10.51" transform="rotate(7.19 179.36 466.46)" opacity="0.66" fill="#62E5FF" filter="url(#particleGlow)"/></g>
</svg>
